<svg width="287" height="77" viewBox="0 0 287 77" fill="none" xmlns="http://www.w3.org/2000/svg">
<g clip-path="url(#clip0)">
<path d="M26.4375 29.375H9.5625C9.24609 29.375 9 29.6562 9 29.9375V31.0625C9 31.3789 9.24609 31.625 9.5625 31.625H26.4375C26.7188 31.625 27 31.3789 27 31.0625V29.9375C27 29.6562 26.7188 29.375 26.4375 29.375ZM26.4375 24.875H9.5625C9.24609 24.875 9 25.1562 9 25.4375V26.5625C9 26.8789 9.24609 27.125 9.5625 27.125H26.4375C26.7188 27.125 27 26.8789 27 26.5625V25.4375C27 25.1562 26.7188 24.875 26.4375 24.875Z" fill="#878787"/>
<path d="M26.4375 38.375H9.5625C9.24609 38.375 9 38.6562 9 38.9375V40.0625C9 40.3789 9.24609 40.625 9.5625 40.625H26.4375C26.7188 40.625 27 40.3789 27 40.0625V38.9375C27 38.6562 26.7188 38.375 26.4375 38.375ZM26.4375 33.875H9.5625C9.24609 33.875 9 34.1562 9 34.4375V35.5625C9 35.8789 9.24609 36.125 9.5625 36.125H26.4375C26.7188 36.125 27 35.8789 27 35.5625V34.4375C27 34.1562 26.7188 33.875 26.4375 33.875Z" fill="#878787"/>
<path d="M52.1875 16C49.9375 16.0938 38.6875 16.8438 31.6562 20.5938C31.2812 20.7812 30.625 20.7812 30.25 20.5938C23.2188 16.8438 11.9688 16.0938 9.71875 16C6.53125 16 4 18.5312 4 21.625V49.375C4 52.375 6.34375 54.7188 9.34375 54.9062C12.625 55.0938 20.7812 55.6562 26.4062 57.7188C26.9688 57.9062 27.4375 58 27.9062 58H33.9062C34.4688 58 34.9375 57.9062 35.5 57.7188C41.125 55.6562 49.2812 55.0938 52.5625 54.9062C55.5625 54.7188 57.9062 52.375 57.9062 49.375V21.625C58 18.5312 55.375 16 52.1875 16ZM29.5 53.5938C29.5 54.4375 28.75 55.0938 28 55.0938C27.8125 55.0938 27.7188 55 27.5312 55C21.625 52.75 13.5625 52.0938 9.53125 51.9062C8.125 51.8125 7 50.7812 7 49.375V21.625C7 20.2188 8.21875 19.0938 9.71875 19.0938C11.5 19.0938 21.1562 19.75 27.7188 22.6562C28.75 23.125 29.4062 24.1562 29.4062 25.2812L29.5 34.6562V53.5938ZM55 49.375C55 50.7812 53.7812 51.8125 52.375 51.9062C48.3438 52.0938 40.2812 52.75 34.375 55C34.1875 55 34.0938 55.0938 33.9062 55.0938C33.1562 55.0938 32.4062 54.4375 32.4062 53.5938V34.6562L32.5 25.2812C32.5 24.1562 33.1562 23.125 34.1875 22.6562C40.75 19.75 50.4062 19.0938 52.1875 19.0938C53.6875 19.0938 54.9062 20.2188 54.9062 21.625V49.375H55Z" fill="#14879C"/>
<path d="M240.531 4.34375L238.656 2.46875C238.094 1.875 237.125 1.875 236.531 2.46875L234.781 4.21875L238.781 8.21875L240.531 6.46875C241.125 5.875 241.125 4.90625 240.531 4.34375ZM232.844 3.6875C232.344 3.21875 231.562 3.21875 231.062 3.6875L227.344 7.40625C227.156 7.59375 227.156 7.90625 227.344 8.125L228.062 8.8125C228.25 9 228.562 9 228.781 8.8125L231.938 5.625L232.656 6.34375L227.906 11.0938C226.531 12.4688 225.219 15.2188 225 17.1875C224.938 17.6562 225.344 18.0625 225.812 18C227.781 17.7812 230.531 16.4688 231.906 15.0938L238.062 8.9375L235.469 6.34375L232.844 3.6875Z" fill="black"/>
<path d="M75.196 38.92H77.716C78.076 38.92 78.256 38.74 78.256 38.38V16.42C78.256 16.06 78.076 15.88 77.716 15.88H75.196C74.836 15.88 74.656 15.7 74.656 15.34C74.656 14.98 74.836 14.8 75.196 14.8H79.156C79.54 14.8 79.84 14.98 80.056 15.34L94.816 37.84C94.864 37.936 94.936 37.984 95.032 37.984C95.128 37.96 95.176 37.852 95.176 37.66V16.42C95.176 16.06 94.996 15.88 94.636 15.88H92.476C92.116 15.88 91.936 15.7 91.936 15.34C91.936 14.98 92.116 14.8 92.476 14.8H99.316C99.676 14.8 99.856 14.98 99.856 15.34C99.856 15.7 99.676 15.88 99.316 15.88H96.796C96.436 15.88 96.256 16.06 96.256 16.42V38.38C96.256 38.74 96.436 38.92 96.796 38.92H99.316C99.676 38.92 99.856 39.1 99.856 39.46C99.856 39.82 99.676 40 99.316 40H95.356C94.972 40 94.672 39.82 94.456 39.46L79.696 16.96C79.648 16.864 79.576 16.828 79.48 16.852C79.384 16.852 79.336 16.948 79.336 17.14V38.38C79.336 38.74 79.516 38.92 79.876 38.92H82.036C82.396 38.92 82.576 39.1 82.576 39.46C82.576 39.82 82.396 40 82.036 40H75.196C74.836 40 74.656 39.82 74.656 39.46C74.656 39.1 74.836 38.92 75.196 38.92ZM115.965 31.18C115.965 30.82 115.785 30.64 115.425 30.64H109.485C107.397 30.64 105.849 31.048 104.841 31.864C103.857 32.68 103.365 33.724 103.365 34.996C103.365 36.244 103.821 37.276 104.733 38.092C105.669 38.884 107.073 39.28 108.945 39.28C111.273 39.28 113.325 38.104 115.101 35.752C115.413 35.344 115.701 34.9 115.965 34.42V31.18ZM110.349 21.64C112.365 21.64 113.985 22.216 115.209 23.368C116.433 24.496 117.045 25.9 117.045 27.58V38.38C117.045 38.74 117.225 38.92 117.585 38.92H120.105C120.465 38.92 120.645 39.1 120.645 39.46C120.645 39.82 120.465 40 120.105 40H116.505C116.145 40 115.965 39.82 115.965 39.46V37.444C115.965 37.204 115.917 37.036 115.821 36.94C115.725 36.844 115.581 36.892 115.389 37.084C114.741 37.9 113.841 38.656 112.689 39.352C111.537 40.024 110.337 40.36 109.089 40.36C106.857 40.36 105.165 39.868 104.013 38.884C102.861 37.876 102.285 36.58 102.285 34.996C102.285 33.412 102.945 32.116 104.265 31.108C105.585 30.076 107.325 29.56 109.485 29.56H115.425C115.785 29.56 115.965 29.38 115.965 29.02V27.58C115.965 26.188 115.437 25.036 114.381 24.124C113.325 23.188 112.029 22.72 110.493 22.72C108.957 22.72 107.697 22.936 106.713 23.368C105.729 23.776 105.033 24.136 104.625 24.448C104.241 24.76 103.941 24.772 103.725 24.484C103.533 24.196 103.569 23.956 103.833 23.764C105.561 22.348 107.733 21.64 110.349 21.64ZM123.606 38.92H126.126C126.486 38.92 126.666 38.74 126.666 38.38V16.42C126.666 16.06 126.486 15.88 126.126 15.88H123.606C123.246 15.88 123.066 15.7 123.066 15.34C123.066 14.98 123.246 14.8 123.606 14.8H127.566C127.95 14.8 128.25 14.98 128.466 15.34L143.226 37.84C143.274 37.936 143.346 37.984 143.442 37.984C143.538 37.96 143.586 37.852 143.586 37.66V16.42C143.586 16.06 143.406 15.88 143.046 15.88H140.886C140.526 15.88 140.346 15.7 140.346 15.34C140.346 14.98 140.526 14.8 140.886 14.8H147.726C148.086 14.8 148.266 14.98 148.266 15.34C148.266 15.7 148.086 15.88 147.726 15.88H145.206C144.846 15.88 144.666 16.06 144.666 16.42V38.38C144.666 38.74 144.846 38.92 145.206 38.92H147.726C148.086 38.92 148.266 39.1 148.266 39.46C148.266 39.82 148.086 40 147.726 40H143.766C143.382 40 143.082 39.82 142.866 39.46L128.106 16.96C128.058 16.864 127.986 16.828 127.89 16.852C127.794 16.852 127.746 16.948 127.746 17.14V38.38C127.746 38.74 127.926 38.92 128.286 38.92H130.446C130.806 38.92 130.986 39.1 130.986 39.46C130.986 39.82 130.806 40 130.446 40H123.606C123.246 40 123.066 39.82 123.066 39.46C123.066 39.1 123.246 38.92 123.606 38.92ZM152.975 37.768C151.343 36.04 150.527 33.784 150.527 31C150.527 28.216 151.343 25.96 152.975 24.232C154.607 22.504 156.731 21.64 159.347 21.64C161.963 21.64 164.087 22.504 165.719 24.232C167.351 25.96 168.167 28.216 168.167 31C168.167 33.784 167.351 36.04 165.719 37.768C164.087 39.496 161.963 40.36 159.347 40.36C156.731 40.36 154.607 39.496 152.975 37.768ZM159.347 22.72C157.019 22.72 155.147 23.476 153.731 24.988C152.315 26.5 151.607 28.516 151.607 31.036C151.607 33.532 152.303 35.536 153.695 37.048C155.111 38.536 156.995 39.28 159.347 39.28C161.699 39.28 163.571 38.536 164.963 37.048C166.379 35.536 167.087 33.532 167.087 31.036C167.087 28.516 166.379 26.5 164.963 24.988C163.547 23.476 161.675 22.72 159.347 22.72ZM168.032 14.8H174.872C175.232 14.8 175.412 14.98 175.412 15.34C175.412 15.7 175.232 15.88 174.872 15.88H172.712C172.304 15.88 172.184 16.06 172.352 16.42L178.796 37.228C178.844 37.372 178.916 37.444 179.012 37.444C179.108 37.444 179.18 37.372 179.228 37.228L185.384 15.34C185.504 14.98 185.744 14.8 186.104 14.8C186.464 14.8 186.704 14.98 186.824 15.34L192.944 37.228C192.992 37.372 193.064 37.444 193.16 37.444C193.256 37.444 193.328 37.372 193.376 37.228L199.82 16.42C200.012 16.06 199.892 15.88 199.46 15.88H197.3C196.94 15.88 196.76 15.7 196.76 15.34C196.76 14.98 196.94 14.8 197.3 14.8H204.14C204.5 14.8 204.68 14.98 204.68 15.34C204.68 15.7 204.5 15.88 204.14 15.88H201.8C201.44 15.88 201.2 16.06 201.08 16.42L193.844 39.82C193.748 40.18 193.52 40.36 193.16 40.36C192.8 40.36 192.572 40.18 192.476 39.82L186.32 17.86C186.272 17.716 186.188 17.644 186.068 17.644C185.948 17.644 185.864 17.716 185.816 17.86L179.696 39.82C179.576 40.18 179.348 40.36 179.012 40.36C178.676 40.36 178.448 40.18 178.328 39.82L171.092 16.42C170.996 16.06 170.756 15.88 170.372 15.88H168.032C167.672 15.88 167.492 15.7 167.492 15.34C167.492 14.98 167.672 14.8 168.032 14.8ZM217.246 22.72C214.222 22.72 211.702 23.908 209.686 26.284C209.11 26.956 208.63 27.628 208.246 28.3V38.38C208.246 38.74 208.426 38.92 208.786 38.92H211.666C212.026 38.92 212.206 39.1 212.206 39.46C212.206 39.82 212.026 40 211.666 40H204.106C203.746 40 203.566 39.82 203.566 39.46C203.566 39.1 203.746 38.92 204.106 38.92H206.626C206.986 38.92 207.166 38.74 207.166 38.38V23.62C207.166 23.26 206.986 23.08 206.626 23.08H204.106C203.746 23.08 203.566 22.9 203.566 22.54C203.566 22.18 203.746 22 204.106 22H207.706C208.066 22 208.246 22.18 208.246 22.54V25.384C208.246 25.984 208.498 25.996 209.002 25.42C209.89 24.412 211.042 23.536 212.458 22.792C213.898 22.024 215.494 21.64 217.246 21.64H219.01C219.37 21.64 219.55 21.82 219.55 22.18V26.68C219.55 27.04 219.37 27.22 219.01 27.22C218.65 27.22 218.47 27.04 218.47 26.68V23.26C218.47 22.9 218.29 22.72 217.93 22.72H217.246ZM222.388 40C222.028 40 221.848 39.82 221.848 39.46C221.848 39.1 222.028 38.92 222.388 38.92H224.908C225.268 38.92 225.448 38.74 225.448 38.38V23.62C225.448 23.26 225.268 23.08 224.908 23.08H222.388C222.028 23.08 221.848 22.9 221.848 22.54C221.848 22.18 222.028 22 222.388 22H225.988C226.348 22 226.528 22.18 226.528 22.54V38.38C226.528 38.74 226.708 38.92 227.068 38.92H229.588C229.948 38.92 230.128 39.1 230.128 39.46C230.128 39.82 229.948 40 229.588 40H222.388ZM224.764 18.724C224.5 18.436 224.368 18.088 224.368 17.68C224.368 17.272 224.5 16.936 224.764 16.672C225.052 16.384 225.4 16.24 225.808 16.24C226.216 16.24 226.552 16.384 226.816 16.672C227.104 16.936 227.248 17.272 227.248 17.68C227.248 18.088 227.104 18.436 226.816 18.724C226.552 18.988 226.216 19.12 225.808 19.12C225.4 19.12 225.052 18.988 224.764 18.724ZM233.012 38.92H235.532C235.892 38.92 236.072 38.74 236.072 38.38V16.42C236.072 16.06 235.892 15.88 235.532 15.88H233.012C232.652 15.88 232.472 15.7 232.472 15.34C232.472 14.98 232.652 14.8 233.012 14.8H236.972C237.404 14.8 237.704 14.98 237.872 15.34L247.952 37.66C248.192 38.14 248.432 38.14 248.672 37.66L258.752 15.34C258.92 14.98 259.22 14.8 259.652 14.8H263.612C263.972 14.8 264.152 14.98 264.152 15.34C264.152 15.7 263.972 15.88 263.612 15.88H261.092C260.732 15.88 260.552 16.06 260.552 16.42V38.38C260.552 38.74 260.732 38.92 261.092 38.92H263.612C263.972 38.92 264.152 39.1 264.152 39.46C264.152 39.82 263.972 40 263.612 40H256.772C256.412 40 256.232 39.82 256.232 39.46C256.232 39.1 256.412 38.92 256.772 38.92H258.932C259.292 38.92 259.472 38.74 259.472 38.38V17.32C259.472 17.08 259.424 16.984 259.328 17.032C259.28 17.032 259.232 17.068 259.184 17.14L249.104 39.46C248.912 39.82 248.648 40 248.312 40C247.976 40 247.712 39.82 247.52 39.46L237.44 17.14C237.344 16.996 237.272 16.96 237.224 17.032C237.176 17.104 237.152 17.2 237.152 17.32V38.38C237.152 38.74 237.332 38.92 237.692 38.92H239.852C240.212 38.92 240.392 39.1 240.392 39.46C240.392 39.82 240.212 40 239.852 40H233.012C232.652 40 232.472 39.82 232.472 39.46C232.472 39.1 232.652 38.92 233.012 38.92ZM269.097 37.768C267.465 36.04 266.649 33.784 266.649 31C266.649 28.216 267.465 25.96 269.097 24.232C270.729 22.504 272.853 21.64 275.469 21.64C278.085 21.64 280.209 22.504 281.841 24.232C283.473 25.96 284.289 28.216 284.289 31C284.289 33.784 283.473 36.04 281.841 37.768C280.209 39.496 278.085 40.36 275.469 40.36C272.853 40.36 270.729 39.496 269.097 37.768ZM275.469 22.72C273.141 22.72 271.269 23.476 269.853 24.988C268.437 26.5 267.729 28.516 267.729 31.036C267.729 33.532 268.425 35.536 269.817 37.048C271.233 38.536 273.117 39.28 275.469 39.28C277.821 39.28 279.693 38.536 281.085 37.048C282.501 35.536 283.209 33.532 283.209 31.036C283.209 28.516 282.501 26.5 281.085 24.988C279.669 23.476 277.797 22.72 275.469 22.72Z" fill="black"/>
<path d="M81.72 68L80.344 64.464H75.816L74.456 68H73L77.464 56.528H78.76L83.208 68H81.72ZM79.912 63.184L78.632 59.728C78.6 59.6427 78.5467 59.488 78.472 59.264C78.3973 59.04 78.3227 58.8107 78.248 58.576C78.184 58.3307 78.1307 58.144 78.088 58.016C78.0133 58.3467 77.928 58.672 77.832 58.992C77.736 59.3013 77.656 59.5467 77.592 59.728L76.296 63.184H79.912ZM94.4879 56.576C95.9812 56.576 97.0692 56.8693 97.7519 57.456C98.4345 58.0427 98.7759 58.8693 98.7759 59.936C98.7759 60.5653 98.6319 61.1573 98.3439 61.712C98.0665 62.256 97.5919 62.6987 96.9199 63.04C96.2585 63.3813 95.3572 63.552 94.2159 63.552H92.9039V68H91.4639V56.576H94.4879ZM94.3599 57.808H92.9039V62.32H94.0559C95.1439 62.32 95.9545 62.144 96.4879 61.792C97.0212 61.44 97.2879 60.8427 97.2879 60C97.2879 59.264 97.0532 58.7147 96.5839 58.352C96.1145 57.9893 95.3732 57.808 94.3599 57.808ZM102.271 68V56.576H103.711V66.72H108.703V68H102.271ZM118.95 68L117.574 64.464H113.046L111.686 68H110.23L114.694 56.528H115.99L120.438 68H118.95ZM117.142 63.184L115.862 59.728C115.83 59.6427 115.777 59.488 115.702 59.264C115.627 59.04 115.553 58.8107 115.478 58.576C115.414 58.3307 115.361 58.144 115.318 58.016C115.243 58.3467 115.158 58.672 115.062 58.992C114.966 59.3013 114.886 59.5467 114.822 59.728L113.526 63.184H117.142ZM132.177 68H130.497L124.385 58.512H124.321C124.342 58.8853 124.369 59.3493 124.401 59.904C124.433 60.4587 124.449 61.0293 124.449 61.616V68H123.121V56.576H124.785L130.881 66.032H130.945C130.934 65.8613 130.918 65.6053 130.897 65.264C130.886 64.9227 130.87 64.5493 130.849 64.144C130.838 63.7387 130.833 63.3653 130.833 63.024V56.576H132.177V68ZM145.453 68H143.773L137.661 58.512H137.597C137.618 58.8853 137.645 59.3493 137.677 59.904C137.709 60.4587 137.725 61.0293 137.725 61.616V68H136.397V56.576H138.061L144.157 66.032H144.221C144.21 65.8613 144.194 65.6053 144.173 65.264C144.162 64.9227 144.146 64.5493 144.125 64.144C144.114 63.7387 144.109 63.3653 144.109 63.024V56.576H145.453V68ZM152.889 68H148.761V67.168L150.105 66.864V57.728L148.761 57.408V56.576H152.889V57.408L151.545 57.728V66.864L152.889 67.168V68ZM165.271 68H163.591L157.479 58.512H157.415C157.436 58.8853 157.463 59.3493 157.495 59.904C157.527 60.4587 157.543 61.0293 157.543 61.616V68H156.215V56.576H157.879L163.975 66.032H164.039C164.028 65.8613 164.012 65.6053 163.991 65.264C163.98 64.9227 163.964 64.5493 163.943 64.144C163.932 63.7387 163.927 63.3653 163.927 63.024V56.576H165.271V68ZM174.451 61.968H178.403V67.568C177.785 67.7707 177.161 67.92 176.531 68.016C175.902 68.112 175.187 68.16 174.387 68.16C173.203 68.16 172.206 67.9253 171.395 67.456C170.585 66.976 169.966 66.2987 169.539 65.424C169.123 64.5387 168.915 63.4933 168.915 62.288C168.915 61.0933 169.15 60.0587 169.619 59.184C170.089 58.3093 170.761 57.632 171.635 57.152C172.521 56.6613 173.587 56.416 174.835 56.416C175.475 56.416 176.078 56.4747 176.643 56.592C177.219 56.7093 177.753 56.8747 178.243 57.088L177.699 58.336C177.294 58.1547 176.835 58 176.323 57.872C175.822 57.744 175.299 57.68 174.755 57.68C173.39 57.68 172.323 58.0907 171.555 58.912C170.798 59.7333 170.419 60.8587 170.419 62.288C170.419 63.1947 170.563 64 170.851 64.704C171.15 65.3973 171.614 65.9413 172.243 66.336C172.873 66.72 173.699 66.912 174.723 66.912C175.225 66.912 175.651 66.8853 176.003 66.832C176.355 66.7787 176.675 66.7147 176.963 66.64V63.248H174.451V61.968ZM190.977 56.576C192.396 56.576 193.441 56.848 194.113 57.392C194.796 57.9253 195.137 58.736 195.137 59.824C195.137 60.432 195.025 60.9387 194.801 61.344C194.577 61.7493 194.289 62.0747 193.937 62.32C193.596 62.5547 193.233 62.7413 192.849 62.88L195.985 68H194.305L191.537 63.28H189.265V68H187.825V56.576H190.977ZM190.897 57.824H189.265V62.064H190.977C191.905 62.064 192.582 61.8827 193.009 61.52C193.436 61.1467 193.649 60.6027 193.649 59.888C193.649 59.1413 193.425 58.6133 192.977 58.304C192.529 57.984 191.836 57.824 190.897 57.824ZM205.282 68H198.898V56.576H205.282V57.84H200.338V61.408H204.994V62.656H200.338V66.736H205.282V68ZM210.349 68H208.909V56.576H215.293V57.84H210.349V61.888H214.989V63.152H210.349V68ZM224.71 68H218.326V56.576H224.71V57.84H219.766V61.408H224.422V62.656H219.766V66.736H224.71V68ZM231.488 56.576C232.907 56.576 233.952 56.848 234.624 57.392C235.307 57.9253 235.648 58.736 235.648 59.824C235.648 60.432 235.536 60.9387 235.312 61.344C235.088 61.7493 234.8 62.0747 234.448 62.32C234.107 62.5547 233.744 62.7413 233.36 62.88L236.496 68H234.816L232.048 63.28H229.776V68H228.336V56.576H231.488ZM231.408 57.824H229.776V62.064H231.488C232.416 62.064 233.094 61.8827 233.52 61.52C233.947 61.1467 234.16 60.6027 234.16 59.888C234.16 59.1413 233.936 58.6133 233.488 58.304C233.04 57.984 232.347 57.824 231.408 57.824ZM245.793 68H239.409V56.576H245.793V57.84H240.849V61.408H245.505V62.656H240.849V66.736H245.793V68ZM258.476 68H256.796L250.684 58.512H250.62C250.641 58.8853 250.668 59.3493 250.7 59.904C250.732 60.4587 250.748 61.0293 250.748 61.616V68H249.42V56.576H251.084L257.18 66.032H257.244C257.233 65.8613 257.217 65.6053 257.196 65.264C257.185 64.9227 257.169 64.5493 257.148 64.144C257.137 63.7387 257.132 63.3653 257.132 63.024V56.576H258.476V68ZM267.592 57.68C266.366 57.68 265.4 58.0907 264.696 58.912C263.992 59.7333 263.64 60.8587 263.64 62.288C263.64 63.7067 263.966 64.832 264.616 65.664C265.278 66.4853 266.264 66.896 267.576 66.896C268.078 66.896 268.552 66.8533 269 66.768C269.448 66.6827 269.886 66.576 270.312 66.448V67.696C269.886 67.856 269.443 67.9733 268.984 68.048C268.536 68.1227 267.998 68.16 267.368 68.16C266.206 68.16 265.235 67.92 264.456 67.44C263.678 66.96 263.091 66.2773 262.696 65.392C262.312 64.5067 262.12 63.4667 262.12 62.272C262.12 61.12 262.328 60.1067 262.744 59.232C263.171 58.3467 263.795 57.6587 264.616 57.168C265.438 56.6667 266.435 56.416 267.608 56.416C268.814 56.416 269.864 56.64 270.76 57.088L270.184 58.304C269.832 58.144 269.438 58 269 57.872C268.574 57.744 268.104 57.68 267.592 57.68ZM280.31 68H273.926V56.576H280.31V57.84H275.366V61.408H280.022V62.656H275.366V66.736H280.31V68Z" fill="#14879C"/>
</g>
<defs>
<clipPath id="clip0">
<rect width="287" height="77" fill="white"/>
</clipPath>
</defs>
</svg>
