<?xml version="1.0" encoding="iso-8859-1"?>
<!-- Generator: Adobe Illustrator 19.0.0, SVG Export Plug-In . SVG Version: 6.00 Build 0)  -->
<svg version="1.1" id="Capa_1" xmlns="http://www.w3.org/2000/svg" xmlns:xlink="http://www.w3.org/1999/xlink" x="0px" y="0px"
	 viewBox="0 0 512 512" style="enable-background:new 0 0 512 512;" xml:space="preserve">
<rect y="110.933" style="fill:#FDC536;" width="512" height="290.133"/>
<g>
	<rect x="324.267" y="179.2" style="fill:#FEE8AF;" width="17.067" height="17.067"/>
	<rect x="324.267" y="213.333" style="fill:#FEE8AF;" width="17.067" height="17.067"/>
	<rect x="324.267" y="247.467" style="fill:#FEE8AF;" width="17.067" height="17.067"/>
	<rect x="324.267" y="281.6" style="fill:#FEE8AF;" width="17.067" height="17.067"/>
	<rect x="324.267" y="349.867" style="fill:#FEE8AF;" width="17.067" height="17.067"/>
	<rect x="324.267" y="145.067" style="fill:#FEE8AF;" width="17.067" height="17.067"/>
	<rect x="324.267" y="315.733" style="fill:#FEE8AF;" width="17.067" height="17.067"/>
</g>
<g>
	<rect x="358.4" y="145.067" style="fill:#2AB69D;" width="85.333" height="17.067"/>
	<rect x="358.4" y="179.2" style="fill:#2AB69D;" width="51.2" height="17.067"/>
</g>
<g>
	<rect x="358.4" y="315.733" style="fill:#42210B;" width="17.067" height="51.2"/>
	<rect x="392.533" y="315.733" style="fill:#42210B;" width="17.067" height="51.2"/>
	<rect x="426.667" y="315.733" style="fill:#42210B;" width="17.067" height="51.2"/>
	<rect x="460.8" y="315.733" style="fill:#42210B;" width="17.067" height="51.2"/>
	<rect x="51.2" y="315.733" style="fill:#42210B;" width="17.067" height="51.2"/>
	<rect x="85.333" y="315.733" style="fill:#42210B;" width="17.067" height="51.2"/>
	<rect x="119.467" y="315.733" style="fill:#42210B;" width="17.067" height="51.2"/>
	<rect x="153.6" y="315.733" style="fill:#42210B;" width="17.067" height="51.2"/>
</g>
<g>
	<rect x="34.133" y="179.2" style="fill:#2AB69D;" width="85.333" height="17.067"/>
	<rect x="34.133" y="145.067" style="fill:#2AB69D;" width="119.467" height="17.067"/>
	<rect x="426.667" y="179.2" style="fill:#2AB69D;" width="51.2" height="17.067"/>
	<rect x="34.133" y="247.467" style="fill:#2AB69D;" width="119.467" height="17.067"/>
	<rect x="34.133" y="213.333" style="fill:#2AB69D;" width="136.533" height="17.067"/>
	<rect x="204.8" y="179.2" style="fill:#2AB69D;" width="102.4" height="17.067"/>
	<rect x="204.8" y="145.067" style="fill:#2AB69D;" width="68.267" height="17.067"/>
</g>
<g>
	<path style="fill:#E65848;" d="M290.133,366.933H204.8V281.6h85.333V366.933z M221.867,349.867h51.2v-51.2h-51.2V349.867z"/>
	<path style="fill:#E65848;" d="M460.8,298.667h-85.333v-85.333H460.8V298.667z M392.533,281.6h51.2v-51.2h-51.2V281.6z"/>
</g>
<g>
</g>
<g>
</g>
<g>
</g>
<g>
</g>
<g>
</g>
<g>
</g>
<g>
</g>
<g>
</g>
<g>
</g>
<g>
</g>
<g>
</g>
<g>
</g>
<g>
</g>
<g>
</g>
<g>
</g>
</svg>
