<?xml version="1.0" encoding="iso-8859-1"?>
<!-- Generator: Adobe Illustrator 19.0.0, SVG Export Plug-In . SVG Version: 6.00 Build 0)  -->
<svg version="1.1" id="Capa_1" xmlns="http://www.w3.org/2000/svg" xmlns:xlink="http://www.w3.org/1999/xlink" x="0px" y="0px"
	 viewBox="0 0 512 512" style="enable-background:new 0 0 512 512;" xml:space="preserve">
<g>
	<rect x="238.933" y="247.387" style="fill:#E65848;" width="34.133" height="256"/>
	<rect x="418.133" y="247.387" style="fill:#E65848;" width="34.133" height="256"/>
</g>
<g>
	<rect x="187.733" y="418.054" style="fill:#FDC536;" width="315.733" height="34.133"/>
	<rect x="204.8" y="281.52" style="fill:#FDC536;" width="281.6" height="102.4"/>
</g>
<path style="fill:#2AB69D;" d="M116.599,226.702L86.758,17.84c-0.401-2.773-1.681-5.342-3.644-7.339
	c-8.073-9.011-20.617-12.57-32.222-9.131C40.704,4.691,33.297,13.523,31.804,24.138L2.867,226.702
	c-1.997,13.995,7.731,26.965,21.726,28.962c1.195,0.171,2.406,0.256,3.618,0.256h63.053c14.14,0,25.6-11.46,25.6-25.6
	c0-1.212-0.085-2.423-0.256-3.618H116.599z"/>
<path style="fill:#E65848;" d="M435.2,25.52L435.2,25.52c28.279,0,51.2,22.921,51.2,51.2l0,0c0,28.279-22.921,51.2-51.2,51.2l0,0
	c-28.279,0-51.2-22.921-51.2-51.2l0,0C384,48.441,406.921,25.52,435.2,25.52z"/>
<path style="fill:#2AB69D;" d="M209.067,174.094L209.067,174.094L182.383,40.582c-3.183-15.898-18.654-26.206-34.551-23.023
	c-11.614,2.33-20.693,11.401-23.014,23.014L98.133,174.094c-2.773,13.867,6.212,27.349,20.079,30.131
	c1.647,0.333,3.319,0.495,5.001,0.495h60.766c14.14-0.009,25.591-11.477,25.583-25.617
	C209.562,177.422,209.399,175.741,209.067,174.094z"/>
<path style="fill:#0B9FBD;" d="M238.933,106.587L238.933,106.587c0,25.924,21.009,46.933,46.933,46.933H486.4
	c9.429,0,17.067-7.637,17.067-17.067l0,0c0-9.429-7.637-17.067-17.067-17.067h-34.133c0-28.279-22.921-51.2-51.2-51.2h-8.533v-8.533
	c0-28.279-22.921-51.2-51.2-51.2l0,0c-28.279,0-51.2,22.921-51.2,51.2h-4.267C259.942,59.654,238.933,80.663,238.933,106.587z"/>
<g>
	<rect x="51.2" y="187.654" style="fill:#42210B;" width="17.067" height="324.267"/>
	<rect x="145.067" y="136.454" style="fill:#42210B;" width="17.067" height="366.933"/>
</g>
<rect y="494.854" style="fill:#0B9FBD;" width="512" height="17.067"/>
<path style="fill:#2AB69D;" d="M119.467,426.587v-8.533c0-32.99-26.743-59.733-59.733-59.733S0,385.064,0,418.054v93.867h119.467
	c23.561,0,42.667-19.106,42.667-42.667S143.027,426.587,119.467,426.587z"/>
<g>
</g>
<g>
</g>
<g>
</g>
<g>
</g>
<g>
</g>
<g>
</g>
<g>
</g>
<g>
</g>
<g>
</g>
<g>
</g>
<g>
</g>
<g>
</g>
<g>
</g>
<g>
</g>
<g>
</g>
</svg>
