<?xml version="1.0" encoding="iso-8859-1"?>
<!-- Generator: Adobe Illustrator 19.0.0, SVG Export Plug-In . SVG Version: 6.00 Build 0)  -->
<svg version="1.1" id="Capa_1" xmlns="http://www.w3.org/2000/svg" xmlns:xlink="http://www.w3.org/1999/xlink" x="0px" y="0px"
	 viewBox="0 0 512.001 512.001" style="enable-background:new 0 0 512.001 512.001;" xml:space="preserve">
<path style="fill:#2AB69D;" d="M161.941,6.74c-0.99-4.608-5.538-7.535-10.138-6.545c-3.277,0.708-5.837,3.268-6.545,6.545
	l-45.91,214.19L68.073,75.008c-0.99-4.608-5.53-7.535-10.138-6.545c-3.277,0.708-5.837,3.268-6.545,6.545L0.189,313.945
	c-0.981,4.608,1.954,9.139,6.562,10.129c0.58,0.128,1.178,0.188,1.775,0.188h102.402c4.71,0,8.533-3.823,8.533-8.533
	c0-0.597-0.06-1.195-0.188-1.784l-12.425-57.951h97.947c4.71,0,8.533-3.823,8.533-8.533c0-0.597-0.06-1.195-0.188-1.783
	L161.941,6.74z"/>
<polygon style="fill:#0B9FBD;" points="349.865,158.593 187.729,320.729 187.729,511.999 512.001,511.999 512.001,320.729 "/>
<polygon style="fill:#E65848;" points="341.332,51.191 341.332,140.059 430.199,51.191 "/>
<rect x="341.332" y="51.191" style="fill:#0B9FBD;" width="17.067" height="119.469"/>
<polygon style="fill:#FEE8AF;" points="230.397,503.465 349.865,341.329 469.334,503.465 "/>
<g>
	<polygon style="fill:#FDC536;" points="230.397,503.465 230.397,341.329 349.865,341.329 	"/>
	<polygon style="fill:#FDC536;" points="469.334,503.465 469.334,341.329 349.865,341.329 	"/>
</g>
<g>
</g>
<g>
</g>
<g>
</g>
<g>
</g>
<g>
</g>
<g>
</g>
<g>
</g>
<g>
</g>
<g>
</g>
<g>
</g>
<g>
</g>
<g>
</g>
<g>
</g>
<g>
</g>
<g>
</g>
</svg>
