<?xml version="1.0" encoding="iso-8859-1"?>
<!-- Generator: Adobe Illustrator 19.0.0, SVG Export Plug-In . SVG Version: 6.00 Build 0)  -->
<svg version="1.1" id="Capa_1" xmlns="http://www.w3.org/2000/svg" xmlns:xlink="http://www.w3.org/1999/xlink" x="0px" y="0px"
	 viewBox="0 0 512 512" style="enable-background:new 0 0 512 512;" xml:space="preserve">
<path style="fill:#3CB2CA;" d="M59.733,0h392.533c4.71,0,8.533,3.823,8.533,8.533v460.8c0,4.71-3.823,8.533-8.533,8.533H59.733
	c-4.71,0-8.533-3.823-8.533-8.533V8.533C51.2,3.823,55.023,0,59.733,0z"/>
<path style="fill:#8AD1DF;" d="M452.267,443.733H85.333c-18.85,0-34.133,15.283-34.133,34.133S66.483,512,85.333,512h366.933
	c4.71,0,8.533-3.823,8.533-8.533v-51.2C460.8,447.556,456.977,443.733,452.267,443.733z"/>
<path style="fill:#E65848;" d="M270.746,76.8h4.642C335.369,76.8,384,125.431,384,185.412l0,0l0,0
	c0,28.809-11.443,56.431-31.812,76.8l-79.121,79.121l-79.121-79.121c-20.369-20.369-31.812-47.991-31.812-76.8l0,0
	C162.133,125.431,210.765,76.8,270.746,76.8L270.746,76.8z"/>
<g>
	<path style="fill:#FDC536;" d="M273.067,128L273.067,128c32.99,0,59.733,26.743,59.733,59.733l0,0
		c0,32.99-26.743,59.733-59.733,59.733l0,0c-32.99,0-59.733-26.743-59.733-59.733l0,0C213.333,154.743,240.077,128,273.067,128z"/>
	<rect x="204.8" y="34.133" style="fill:#FDC536;" width="136.533" height="17.067"/>
	<rect x="204.8" y="375.467" style="fill:#FDC536;" width="136.533" height="17.067"/>
	<rect x="204.8" y="409.6" style="fill:#FDC536;" width="136.533" height="17.067"/>
</g>
<rect x="85.333" style="fill:#0B9FBD;" width="17.067" height="443.733"/>
<g>
</g>
<g>
</g>
<g>
</g>
<g>
</g>
<g>
</g>
<g>
</g>
<g>
</g>
<g>
</g>
<g>
</g>
<g>
</g>
<g>
</g>
<g>
</g>
<g>
</g>
<g>
</g>
<g>
</g>
</svg>
