<?xml version="1.0" encoding="iso-8859-1"?>
<!-- Generator: Adobe Illustrator 19.0.0, SVG Export Plug-In . SVG Version: 6.00 Build 0)  -->
<svg version="1.1" id="Capa_1" xmlns="http://www.w3.org/2000/svg" xmlns:xlink="http://www.w3.org/1999/xlink" x="0px" y="0px"
	 viewBox="0 0 512 512" style="enable-background:new 0 0 512 512;" xml:space="preserve">
<path style="fill:#2AB69D;" d="M490.69,335.448c-5.65,0.018-11.061,2.26-15.069,6.241l-29.069,29.069H180.966
	c-17.064,0-30.897,13.833-30.897,30.897c0,17.064,13.833,30.897,30.897,30.897h265.587l29.069,29.069l0,0
	c8.324,8.324,21.813,8.324,30.137,0c3.999-3.999,6.241-9.419,6.241-15.069v-89.794C511.982,344.991,502.457,335.466,490.69,335.448z
	"/>
<path style="fill:#FDC536;" d="M335.448,450.207H291.31V344.276h-17.655v105.931H256V344.276h-17.655v105.931H220.69V344.276
	h-17.655v105.931h-44.138c-4.873,0-8.828,3.955-8.828,8.828v44.138c0,4.873,3.955,8.828,8.828,8.828h176.552
	c4.873,0,8.828-3.955,8.828-8.828v-44.138C344.276,454.162,340.321,450.207,335.448,450.207z"/>
<path style="fill:#E65848;" d="M97.103,17.655h70.621c4.873,0,8.828,3.955,8.828,8.828v35.31c0,4.873-3.955,8.828-8.828,8.828
	H97.103c-4.873,0-8.828-3.955-8.828-8.828v-35.31C88.276,21.61,92.231,17.655,97.103,17.655z"/>
<path style="fill:#FDC536;" d="M8.828,123.586h35.31c4.873,0,8.828,3.955,8.828,8.828v141.241c0,4.873-3.955,8.828-8.828,8.828
	H8.828c-4.873,0-8.828-3.955-8.828-8.828V132.414C0,127.541,3.955,123.586,8.828,123.586z"/>
<path style="fill:#FEE8AF;" d="M61.793,52.966h353.103c14.627,0,26.483,11.855,26.483,26.483v247.172
	c0,14.627-11.855,26.483-26.483,26.483H61.793c-14.627,0-26.483-11.855-26.483-26.483V79.448
	C35.31,64.821,47.166,52.966,61.793,52.966z"/>
<circle style="fill:#3CB2CA;" cx="132.414" cy="150.069" r="44.138"/>
<path style="fill:#FDC536;" d="M167.724,0h211.862c4.873,0,8.828,3.955,8.828,8.828v52.966c0,4.873-3.955,8.828-8.828,8.828H167.724
	c-4.873,0-8.828-3.955-8.828-8.828V8.828C158.897,3.955,162.851,0,167.724,0z"/>
<path style="fill:#E65848;" d="M238.345,35.31h194.207c14.627,0,26.483,11.855,26.483,26.483V256
	c0,14.627-11.855,26.483-26.483,26.483H238.345c-14.627,0-26.483-11.855-26.483-26.483V61.793
	C211.862,47.166,223.718,35.31,238.345,35.31z"/>
<path style="fill:#3CB2CA;" d="M335.448,70.621c-48.755,0-88.276,39.521-88.276,88.276s39.521,88.276,88.276,88.276
	s88.276-39.521,88.276-88.276C423.671,110.168,384.177,70.674,335.448,70.621z"/>
<g>
	<path style="fill:#0B9FBD;" d="M376.576,80.852c11.705,64.424-31.029,126.146-95.453,137.852c-3.063,0.556-6.144,0.989-9.234,1.306
		c33.739,35.134,89.582,36.264,124.716,2.525s36.264-89.582,2.525-124.716C392.572,90.986,384.953,85.257,376.576,80.852z"/>
	<path style="fill:#0B9FBD;" d="M162.675,118.104c-8.757,29.025-28.222,53.619-54.457,68.811
		c20.268,13.436,47.59,7.901,61.025-12.367C181.116,156.646,178.335,132.802,162.675,118.104z"/>
</g>
<g>
</g>
<g>
</g>
<g>
</g>
<g>
</g>
<g>
</g>
<g>
</g>
<g>
</g>
<g>
</g>
<g>
</g>
<g>
</g>
<g>
</g>
<g>
</g>
<g>
</g>
<g>
</g>
<g>
</g>
</svg>
